<?xml version="1.0" standalone="no"?>
<!DOCTYPE svg PUBLIC "-//W3C//DTD SVG 20010904//EN"
 "http://www.w3.org/TR/2001/REC-SVG-20010904/DTD/svg10.dtd">
<svg version="1.0" xmlns="http://www.w3.org/2000/svg"
 width="512.000000pt" height="512.000000pt" viewBox="0 0 512.000000 512.000000"
 preserveAspectRatio="xMidYMid meet">
<metadata>
Created by potrace 1.16, written by Peter Selinger 2001-2019
</metadata>
<g transform="translate(0.000000,512.000000) scale(0.100000,-0.100000)"
fill="#000000" stroke="none">
<path d="M1980 4725 c-69 -18 -161 -47 -205 -65 -114 -45 -300 -137 -316 -156
-11 -13 -10 -27 4 -82 9 -37 17 -72 17 -79 0 -6 -24 -28 -52 -48 -91 -65 -178
-138 -178 -150 0 -6 -14 -24 -30 -40 l-30 -29 -33 32 c-18 18 -40 32 -48 32
-9 0 -69 -58 -133 -129 -115 -125 -118 -128 -146 -118 -39 15 -64 -6 -56 -45
3 -15 1 -30 -4 -33 -6 -3 -10 -16 -10 -28 0 -11 -12 -33 -26 -48 -25 -26 -25
-28 -10 -57 23 -44 21 -52 -30 -155 -59 -116 -136 -349 -128 -386 4 -18 3 -22
-4 -13 -6 10 -14 -5 -26 -52 -22 -88 -19 -107 5 -26 10 36 16 49 14 30 -3 -19
-8 -61 -12 -93 l-6 -58 51 -52 50 -52 -12 -130 c-13 -139 -24 -173 -85 -249
-17 -22 -29 -46 -27 -55 2 -9 7 -43 11 -76 10 -93 60 -294 100 -400 l36 -96
-20 -26 c-12 -14 -21 -32 -21 -40 0 -25 86 -182 157 -289 74 -111 220 -292
261 -325 l26 -20 38 40 c20 23 42 41 48 41 6 0 53 -39 105 -86 51 -47 126
-110 166 -139 71 -50 246 -155 260 -155 4 0 9 6 12 14 4 10 -25 33 -96 74 -56
33 -113 69 -127 82 -19 16 -11 14 30 -9 30 -17 90 -50 133 -73 73 -40 78 -44
75 -72 -3 -27 2 -34 37 -53 77 -42 311 -114 477 -147 184 -37 208 -49 284
-142 20 -24 43 -44 51 -44 16 0 123 77 123 89 0 8 -65 31 -91 31 -8 1 -32 16
-53 35 -39 35 -39 35 -27 75 l12 40 62 0 c89 1 144 14 173 41 l24 23 -21 22
c-12 13 -38 35 -59 49 -33 23 -46 26 -106 23 l-68 -3 -40 -114 -41 -113 -74 6
c-40 4 -123 16 -183 27 -168 30 -438 122 -438 149 0 6 7 27 15 47 8 19 15 39
15 44 0 5 -27 22 -60 39 -176 89 -366 219 -492 338 -77 73 -91 74 -132 12 -14
-22 -30 -40 -35 -40 -13 0 -127 148 -195 252 -159 244 -249 480 -292 765 l-16
111 26 35 c46 59 63 129 69 275 l6 132 -34 26 c-19 14 -37 34 -40 43 -8 27 40
255 80 377 20 60 67 172 105 248 77 153 75 135 26 201 -6 9 4 28 32 62 23 27
42 54 42 60 0 6 6 10 13 9 7 0 57 47 110 106 53 59 102 110 109 114 7 5 42
-25 94 -79 46 -48 86 -87 89 -87 3 0 5 6 5 13 0 19 146 158 236 224 45 33 117
81 160 107 43 25 98 62 121 80 52 42 171 89 322 127 120 31 161 35 190 20 21
-12 88 2 108 21 11 12 11 24 0 81 l-14 67 35 6 c44 8 225 -1 355 -18 90 -11
100 -11 108 5 7 12 18 15 42 10 58 -11 97 -31 97 -50 0 -31 28 -61 68 -74 75
-24 236 -101 324 -155 127 -77 196 -132 326 -258 61 -60 115 -106 118 -103 4
3 -47 59 -112 124 -178 177 -348 289 -588 388 -108 45 -106 43 -119 138 -5 36
-4 47 7 47 27 0 221 -72 316 -116 103 -49 246 -130 256 -145 3 -6 -6 -25 -20
-44 -14 -18 -26 -37 -26 -41 0 -12 59 70 60 82 1 34 -286 183 -473 245 -131
44 -135 45 -149 7 -2 -4 -41 2 -88 12 -190 42 -481 51 -682 20 -68 -11 -81
-10 -103 4 -32 21 -38 20 -185 -19z m143 -66 c11 -12 25 -18 36 -14 45 14 90
8 124 -18 30 -23 66 -81 56 -91 -2 -3 -48 -12 -102 -21 -211 -36 -387 -100
-467 -170 -32 -27 -79 -62 -106 -76 -82 -45 -214 -144 -307 -231 l-88 -83 -29
30 c-17 17 -30 36 -30 42 0 18 177 181 262 240 44 31 82 63 85 71 4 8 -1 35
-11 61 -9 25 -16 54 -16 63 0 29 221 126 415 184 131 39 155 41 178 13z
m-1313 -789 c0 -5 -5 -10 -11 -10 -5 0 -7 5 -4 10 3 6 8 10 11 10 2 0 4 -4 4
-10z"/>
<path d="M2512 4549 c3 -10 41 -17 139 -26 457 -41 793 -195 1127 -517 28 -28
52 -45 52 -39 0 24 -205 205 -322 283 -268 181 -507 262 -853 290 -70 5 -131
13 -137 16 -6 4 -9 1 -6 -7z"/>
<path d="M2368 4355 c-308 -44 -632 -181 -893 -378 -172 -130 -331 -325 -440
-539 -80 -155 -116 -262 -151 -443 -23 -119 -28 -170 -30 -338 l-2 -198 -44
-31 c-68 -49 -66 -34 -22 -216 46 -187 142 -415 245 -578 37 -57 40 -68 30
-90 -15 -33 -14 -74 2 -73 6 0 21 4 32 8 16 7 31 -3 79 -53 63 -66 57 -50 -11
28 -26 28 -43 58 -43 73 0 13 -17 50 -39 81 -114 168 -218 401 -271 605 -40
155 -39 167 7 200 20 15 39 25 41 23 2 -3 12 -44 23 -93 10 -48 31 -124 45
-167 24 -73 25 -80 10 -91 -24 -18 -20 -28 9 -21 15 4 25 2 25 -4 0 -6 22 -58
49 -116 58 -122 153 -270 235 -367 l58 -68 -31 -44 c-42 -59 -40 -72 12 -77
53 -6 59 -1 19 13 -18 6 -32 13 -32 15 0 2 12 21 28 42 l27 39 80 -74 c162
-150 447 -315 670 -388 180 -59 307 -79 495 -79 227 0 376 33 595 131 109 49
287 144 281 150 -2 2 -58 -23 -125 -56 -66 -34 -123 -61 -126 -61 -3 0 -5 7
-5 15 0 15 16 27 165 115 95 56 213 142 306 222 30 26 59 48 62 48 21 0 -3
-27 -94 -105 l-101 -88 7 -52 6 -53 -43 -30 c-163 -111 -413 -208 -638 -248
-132 -23 -370 -35 -485 -23 -290 28 -608 159 -888 365 -20 15 -39 25 -42 22
-3 -3 35 -34 85 -69 311 -220 648 -339 965 -339 372 0 735 96 994 264 59 38
71 50 71 73 1 23 13 37 68 76 37 26 89 67 117 91 l50 44 -22 53 -23 53 68 70
c159 165 230 292 325 576 59 176 92 312 103 425 5 45 13 75 23 83 14 11 13 12
-9 10 -23 -3 -25 -8 -32 -72 -17 -171 -91 -430 -174 -606 -188 -398 -595 -761
-1009 -899 -171 -57 -239 -66 -480 -66 -204 0 -228 2 -332 27 -274 65 -514
197 -729 401 -281 266 -474 602 -543 942 -43 215 -38 376 20 606 23 91 28 124
19 129 -16 10 7 82 71 219 74 158 167 290 294 417 129 130 241 208 439 309
417 211 825 254 1230 129 218 -68 469 -225 636 -400 220 -230 313 -377 395
-629 47 -142 61 -237 35 -242 -12 -3 -19 20 -33 105 -19 120 -64 266 -107 352
-45 88 -63 102 -24 18 19 -42 37 -83 38 -90 2 -7 8 -26 15 -42 16 -40 49 -172
55 -226 3 -25 -7 3 -24 62 -66 243 -147 396 -314 595 -262 314 -578 479 -982
514 -400 35 -865 -106 -1176 -357 -142 -114 -275 -268 -354 -409 -37 -67 -39
-100 -3 -56 l20 24 27 -20 c15 -10 32 -22 38 -26 8 -4 38 32 79 94 38 55 111
145 163 200 52 54 87 99 79 99 -28 0 -182 -177 -264 -303 l-44 -67 -30 16
c-17 8 -29 19 -27 24 14 41 155 217 253 316 218 221 470 354 805 424 161 34
389 39 549 11 205 -35 373 -100 539 -208 82 -53 277 -253 352 -360 219 -313
303 -582 286 -913 -10 -196 -42 -328 -143 -593 -22 -59 -15 -73 58 -109 31
-16 53 -33 53 -42 -3 -31 -103 -166 -194 -260 -148 -153 -364 -307 -566 -403
-86 -41 -290 -113 -318 -113 -8 0 -17 12 -20 28 -4 15 -9 34 -12 43 -3 13 10
20 66 33 254 62 550 255 746 487 75 87 164 216 164 235 0 6 -18 24 -40 39 -23
16 -39 33 -36 39 72 170 93 228 116 321 69 273 65 604 -11 835 -95 287 -336
554 -637 704 -103 52 -259 102 -380 121 -142 24 -409 17 -538 -13 -164 -38
-337 -110 -461 -192 -83 -55 -54 -46 53 15 231 133 455 195 711 195 494 0 952
-266 1166 -677 103 -198 133 -357 124 -655 -4 -148 -10 -203 -30 -288 -47
-195 -107 -334 -218 -501 -86 -129 -274 -318 -398 -398 -51 -34 -97 -61 -102
-61 -5 0 -9 10 -9 21 0 26 -2 25 -125 -29 -392 -171 -831 -121 -1187 135 -85
61 -114 88 -101 96 4 3 35 -15 67 -39 71 -54 169 -112 255 -150 l64 -28 23 30
c13 16 24 34 24 39 -1 6 -44 31 -98 57 -105 51 -157 88 -151 106 3 8 16 4 41
-13 47 -32 166 -92 199 -100 24 -6 27 -2 52 57 15 35 27 66 27 70 0 4 -33 25
-72 47 -40 23 -94 57 -119 76 l-47 35 -96 -102 -96 -103 -73 76 c-194 204
-350 497 -387 729 -23 147 -6 353 41 493 33 98 111 257 169 343 67 100 262
295 360 361 419 281 937 283 1352 6 80 -54 204 -180 255 -261 20 -31 50 -73
66 -92 39 -45 100 -174 127 -270 19 -69 50 -242 50 -282 0 -39 -19 -15 -25 30
-37 307 -147 549 -331 729 -307 300 -783 405 -1190 262 -307 -108 -571 -340
-722 -637 -94 -185 -131 -329 -132 -518 0 -232 57 -406 211 -641 76 -114 206
-253 237 -253 11 0 69 47 131 105 l112 105 22 -21 c46 -43 134 -98 184 -113
18 -6 23 -1 33 29 7 20 14 35 16 32 2 -2 -1 -18 -7 -36 -6 -18 -8 -35 -5 -39
4 -3 46 -16 94 -29 52 -13 75 -22 57 -22 -17 -1 -57 6 -88 14 -74 19 -72 20
-86 -11 -18 -40 -29 -35 189 -83 43 -10 43 -10 -17 -5 -34 2 -91 13 -126 23
l-65 18 -27 -69 c-15 -38 -25 -71 -23 -74 3 -2 40 -14 84 -25 65 -18 108 -22
244 -23 142 -1 178 2 257 22 121 32 125 34 112 97 -6 28 -12 55 -14 62 -3 8
-24 6 -77 -8 -40 -10 -89 -18 -108 -18 -26 1 -19 4 30 14 36 7 84 18 108 24
39 11 42 14 36 39 -4 15 -8 29 -10 31 -1 1 -31 -4 -66 -13 -36 -9 -73 -16 -84
-15 -10 0 15 9 56 20 41 11 78 23 83 28 5 5 6 26 3 46 -8 40 -5 40 -92 19 -19
-4 -26 -3 -19 3 6 6 33 16 60 22 62 15 169 68 255 127 l65 45 -50 -45 c-27
-26 -85 -65 -128 -87 l-79 -41 7 -36 c4 -21 8 -38 10 -40 2 -2 39 15 83 37 80
40 265 179 276 208 5 13 8 12 23 -2 29 -30 120 -95 131 -95 6 0 23 16 38 35
24 31 25 38 14 64 -8 21 -9 35 -1 49 8 16 6 24 -14 42 -14 13 -26 22 -28 19
-2 -2 -23 -30 -46 -62 -35 -48 -45 -56 -60 -48 -40 22 -42 36 -12 72 l29 34
-37 52 c-20 29 -38 52 -41 53 -3 0 -21 -28 -40 -61 -66 -114 -166 -191 -310
-237 -101 -33 -140 -38 -140 -18 0 12 10 16 38 16 90 0 225 58 304 129 58 52
94 118 104 190 4 28 9 51 13 51 4 0 17 -7 29 -16 25 -18 22 -24 52 86 30 108
37 255 16 359 -22 109 -44 164 -63 157 -8 -3 -18 -6 -23 -6 -4 0 -18 -26 -30
-57 -28 -70 -46 -93 -74 -93 -19 0 -21 6 -21 73 -1 58 -6 82 -27 123 -28 53
-77 103 -130 130 l-31 16 38 35 c35 32 36 35 21 52 -20 22 -116 74 -168 91
-27 8 -38 17 -38 31 0 26 17 21 125 -31 115 -55 211 -140 286 -252 34 -51 65
-94 70 -94 5 -1 15 -2 23 -3 7 0 23 -30 34 -65 54 -163 56 -340 5 -489 l-30
-88 58 -41 c32 -22 61 -38 66 -36 4 1 8 21 9 43 1 22 13 87 27 145 15 58 29
126 32 152 6 47 6 47 48 50 39 3 42 5 42 33 l0 30 -67 3 c-38 2 -68 7 -68 12
0 6 12 10 26 10 19 0 24 4 21 18 -3 9 -8 40 -12 67 -4 28 -20 91 -37 141 l-31
91 -60 -35 c-50 -30 -62 -34 -69 -22 -5 8 -29 50 -54 92 -90 154 -207 249
-368 303 -49 16 -84 31 -78 33 5 1 45 -9 87 -23 43 -14 79 -24 80 -23 7 9 25
48 25 55 0 10 -98 47 -182 69 l-53 13 48 -4 c26 -3 82 -16 123 -31 42 -14 77
-24 79 -22 4 5 35 67 35 71 0 10 -149 61 -224 76 -95 19 -126 35 -50 25 74
-10 187 -40 235 -63 23 -12 43 -20 45 -18 1 1 13 26 28 55 14 28 31 52 36 52
5 0 -2 -24 -15 -52 -14 -29 -25 -57 -25 -63 0 -5 31 -29 68 -52 71 -44 192
-148 192 -165 0 -5 -26 14 -57 43 -50 45 -198 149 -213 149 -11 0 -45 -73 -35
-77 46 -15 225 -155 225 -175 0 -5 -25 13 -55 40 -52 48 -163 122 -181 122 -5
0 -16 -13 -25 -28 -16 -28 -16 -28 21 -49 103 -60 199 -163 256 -275 28 -56
46 -62 41 -15 -4 36 -28 86 -65 135 -14 18 -23 35 -20 37 24 25 254 172 261
168 13 -8 -4 -21 -125 -102 -60 -40 -108 -76 -108 -82 0 -5 13 -27 28 -48 l28
-39 64 41 c34 23 69 46 76 52 17 12 41 -20 67 -90 61 -165 78 -224 89 -305
l12 -90 72 0 c40 0 76 -4 79 -10 4 -6 -23 -10 -74 -10 l-81 0 0 -35 0 -35 83
0 c66 -1 79 -3 66 -13 -9 -7 -21 -43 -28 -91 -7 -44 -15 -85 -18 -92 -2 -7 6
-15 19 -18 19 -4 -118 1 -210 7 -21 2 -27 -6 -44 -58 -18 -55 -24 -112 -13
-123 3 -3 11 0 18 6 10 9 21 6 45 -11 37 -26 39 -35 11 -81 -16 -28 -18 -39
-9 -56 9 -18 5 -31 -25 -85 -20 -36 -41 -65 -48 -65 -14 0 -81 43 -114 73 -13
11 -23 15 -23 9 0 -17 -115 -137 -169 -176 -25 -18 -83 -52 -128 -75 -46 -24
-83 -46 -83 -51 0 -29 26 -113 36 -117 16 -6 122 48 210 108 40 26 110 85 158
130 104 98 117 81 16 -20 -205 -206 -444 -313 -726 -328 -125 -6 -278 12 -366
43 -23 8 -42 13 -43 12 -1 -2 -8 -22 -17 -45 l-16 -43 66 -19 c224 -66 472
-61 692 14 112 38 233 96 253 122 10 13 53 50 96 82 209 159 391 420 480 686
54 164 66 242 66 440 -1 137 -5 196 -18 249 -13 51 -14 72 -6 82 15 19 4 65
-41 160 -58 126 -146 249 -255 359 -108 108 -268 226 -307 224 -12 -1 -60 15
-106 35 -279 121 -642 123 -938 6 -488 -194 -842 -669 -890 -1194 -5 -62 -4
-80 7 -87 10 -6 10 -9 2 -9 -49 0 35 -452 96 -517 11 -12 39 -52 62 -90 23
-37 61 -93 85 -123 48 -62 128 -151 120 -133 -8 15 3 43 18 43 6 -1 29 -16 50
-34 39 -33 39 -34 23 -59 -17 -26 -16 -26 46 -78 129 -109 321 -217 474 -268
208 -70 501 -65 727 11 277 92 575 336 734 600 26 43 50 77 54 78 4 0 22 -13
39 -28 l31 -28 -35 -56 c-139 -217 -395 -446 -631 -565 -104 -52 -292 -110
-419 -129 -136 -20 -319 -14 -447 15 -99 23 -272 82 -344 118 -141 70 -333
204 -321 224 4 5 32 -13 63 -39 31 -27 77 -62 102 -79 102 -67 91 -52 -21 30
-43 31 -93 72 -113 92 l-36 36 -50 -43 -49 -43 27 -28 c36 -38 192 -154 268
-200 135 -81 318 -149 489 -183 118 -23 379 -24 520 -1 242 39 544 174 770
345 92 70 241 218 305 303 122 163 237 463 275 714 21 143 20 180 -7 199 -12
9 -25 16 -29 16 -3 0 -9 -39 -12 -87 -7 -104 -37 -261 -73 -376 -30 -96 -93
-247 -103 -247 -4 0 -15 6 -25 13 -16 12 -15 19 24 116 52 128 86 260 105 408
17 128 19 193 7 193 -5 0 -14 -51 -20 -112 -12 -120 -44 -298 -50 -280 -2 6 4
46 12 89 21 106 36 242 36 337 l0 79 42 -6 c33 -4 49 -14 71 -41 28 -34 32
-36 92 -36 94 0 95 -1 95 -81 0 -186 -89 -566 -145 -619 -27 -26 -71 -92 -164
-250 -34 -58 -87 -141 -117 -185 -31 -44 -45 -69 -31 -55 39 39 132 174 207
300 37 63 77 126 89 140 l21 25 -9 -26 c-32 -90 -156 -304 -254 -439 -26 -35
-47 -72 -47 -82 0 -9 31 -42 70 -73 39 -31 70 -63 70 -71 0 -9 -30 -47 -66
-85 -54 -55 -70 -67 -84 -59 -13 7 -26 3 -53 -18 -118 -91 -202 -154 -228
-169 -16 -9 -29 -22 -29 -28 0 -6 14 -30 32 -54 l31 -43 -24 -19 c-13 -10 -41
-28 -61 -39 l-38 -21 0 28 c0 62 -9 61 -142 -4 -187 -93 -347 -148 -491 -169
-68 -9 -87 -33 -87 -105 0 -50 -4 -61 -30 -87 -37 -37 -38 -55 -4 -81 36 -28
55 -26 89 9 26 27 29 36 27 89 -2 39 2 62 11 69 8 7 56 23 108 36 132 35 225
69 368 137 69 33 128 56 132 52 3 -5 12 -25 19 -45 6 -21 15 -40 20 -43 9 -6
136 63 188 102 37 27 39 48 16 117 -9 26 -15 48 -13 50 45 36 159 115 173 120
11 4 16 12 12 22 -4 11 18 42 69 97 41 44 79 94 84 112 9 35 120 182 177 235
l37 35 -29 -53 c-29 -53 -166 -240 -237 -325 -41 -49 -41 -62 2 -101 15 -14
29 -17 56 -12 73 14 101 85 49 123 l-26 20 68 84 c151 187 290 441 363 665
l42 127 -21 23 c-12 12 -43 31 -70 42 l-48 20 -49 -33 c-41 -28 -51 -41 -66
-89 -20 -61 -19 -61 -47 -46 -16 9 -18 15 -9 38 21 55 87 339 94 404 4 37 13
75 21 85 11 15 13 15 14 3 0 -36 -23 -190 -39 -262 -18 -76 -18 -78 0 -78 10
0 33 7 52 16 33 16 34 17 50 128 9 61 20 134 23 161 4 28 13 59 20 70 19 26
18 152 -1 185 -8 14 -15 50 -15 80 0 77 -16 102 -71 119 l-46 14 -22 104 c-43
204 -150 479 -190 490 -23 6 -39 69 -22 86 19 19 12 52 -16 79 -25 23 -84 58
-98 58 -12 0 -3 -26 25 -70 24 -38 30 -57 28 -91 -3 -41 -1 -44 27 -49 38 -7
79 -72 135 -217 67 -171 100 -318 107 -470 l6 -133 -41 0 c-47 0 -44 -11 -60
173 -9 100 -16 127 -26 116 -2 -2 2 -67 10 -144 7 -77 11 -141 9 -143 -2 -3
-11 -2 -18 1 -10 4 -17 29 -21 74 -32 322 -88 501 -230 726 -54 87 -158 218
-210 266 -20 19 -28 21 -39 12 -12 -9 -8 -18 21 -49 73 -76 185 -239 236 -341
59 -117 132 -308 122 -318 -3 -4 -6 1 -6 10 0 10 -5 17 -11 17 -5 0 -8 4 -5 9
9 13 -71 181 -133 281 -79 126 -210 296 -293 377 -213 208 -516 366 -803 418
-125 23 -366 28 -487 10z m342 -760 c22 -71 44 -151 47 -177 l6 -46 71 -26
c39 -15 83 -36 98 -49 l27 -22 -28 -32 c-27 -29 -32 -31 -68 -22 -21 5 -75 9
-120 9 l-83 0 0 144 c0 136 -1 145 -20 151 -31 10 -40 -2 -40 -51 l0 -44 -45
0 -46 0 6 38 c4 20 26 107 50 192 24 85 47 173 51 195 l7 40 23 -85 c12 -47
41 -143 64 -215z m-512 9 c65 33 195 73 267 81 84 10 66 0 -42 -24 -80 -17
-211 -64 -252 -90 -10 -7 -11 -13 -1 -30 6 -12 9 -27 7 -34 -3 -7 -11 2 -19
20 l-14 32 -49 -29 c-28 -15 -79 -52 -114 -80 -58 -47 -66 -51 -89 -41 -22 11
-29 8 -59 -21 -44 -43 -122 -156 -163 -238 -97 -192 -131 -417 -95 -623 19
-111 36 -160 95 -284 52 -107 141 -226 209 -281 59 -47 51 -26 -15 37 -194
187 -296 456 -281 738 7 131 24 212 68 323 53 133 196 347 225 336 31 -12 153
-120 147 -130 -4 -6 -23 -31 -43 -56 -85 -105 -149 -238 -176 -370 -33 -166
-3 -402 62 -479 13 -16 20 -32 15 -35 -16 -10 -59 75 -82 160 -27 102 -29 267
-4 373 20 83 68 206 91 232 15 17 11 21 -55 63 -39 25 -75 46 -80 46 -5 0 -28
-38 -51 -85 -46 -95 -84 -232 -95 -342 l-7 -73 45 0 44 0 6 68 c9 96 40 207
83 301 20 45 38 80 40 78 2 -1 -13 -41 -32 -89 -93 -232 -106 -448 -40 -652
13 -39 26 -80 30 -91 3 -11 -5 3 -18 30 -31 63 -54 158 -64 255 l-7 75 -44 3
-44 3 7 -79 c3 -44 15 -115 26 -158 23 -90 105 -267 153 -328 61 -79 141 -166
152 -166 6 0 32 22 59 49 l48 49 -44 42 -43 42 43 -32 c24 -18 46 -40 50 -48
4 -11 -27 -46 -99 -113 -57 -54 -106 -95 -108 -93 -3 3 9 19 26 36 l32 32 -82
86 c-250 264 -340 656 -230 1005 43 137 121 276 208 376 57 64 60 65 91 49 26
-14 18 -18 115 56 30 22 73 51 96 65 l41 23 -24 48 c-13 26 -24 53 -24 60 1 7
14 -13 31 -45 l29 -57 48 24z m1291 60 c37 -31 156 -177 178 -218 10 -20 12
-31 4 -39 -14 -14 -51 20 -102 95 -21 31 -64 84 -94 116 -51 55 -55 68 -23 71
3 1 20 -11 37 -25z m-1012 -91 c-4 -4 -39 -15 -78 -25 -97 -24 -240 -94 -323
-157 -75 -57 -103 -64 -34 -8 104 84 221 143 352 177 79 21 92 23 83 13z m-82
-122 c-93 -32 -129 -50 -205 -101 -82 -56 -155 -125 -201 -191 -47 -66 -62
-78 -28 -21 84 140 252 270 419 323 89 29 102 20 15 -10z m55 -136 l0 -85
-101 0 c-134 0 -139 -3 -141 -93 l-2 -72 -5 73 -6 72 -75 -82 c-41 -45 -87
-100 -103 -122 -36 -54 -75 -179 -83 -266 -7 -68 -6 -70 16 -70 28 0 191 49
208 62 6 6 12 31 12 57 0 59 25 156 50 196 25 38 25 33 0 -34 -19 -50 -45
-199 -36 -208 2 -3 39 5 81 17 42 12 79 19 82 16 7 -6 5 -7 -91 -39 -63 -21
-70 -26 -73 -52 -6 -41 -13 -45 -13 -7 0 18 -2 32 -4 32 -4 0 -84 -27 -106
-36 -8 -4 55 -21 140 -40 85 -18 156 -31 157 -30 6 6 12 418 6 432 -3 9 -21
14 -54 14 l-49 0 0 65 0 65 120 0 120 0 0 105 0 105 55 0 55 0 0 -104 0 -104
133 -4 c126 -3 137 -5 200 -36 78 -39 121 -90 138 -166 23 -102 -23 -214 -110
-271 -63 -42 -122 -55 -253 -55 -114 0 -118 -1 -118 -21 0 -22 2 -22 128 -16
70 3 154 13 187 22 81 22 122 10 189 -58 75 -75 93 -153 60 -250 -23 -67 -84
-131 -161 -169 -56 -28 -79 -33 -167 -37 l-101 -6 -6 -90 c-5 -73 -13 -107
-44 -180 -38 -91 -52 -115 -65 -115 -4 0 -19 33 -35 73 -15 39 -38 92 -51 116
-16 28 -24 60 -24 91 0 26 -3 62 -6 79 l-6 31 -119 0 -119 0 0 64 0 65 53 3
52 3 3 145 c1 80 0 155 -2 166 -5 17 -16 23 -58 28 -29 4 -68 9 -85 12 -31 6
-33 5 -33 -24 0 -53 23 -132 60 -208 l35 -73 -37 -6 -38 -7 0 -86 0 -86 -53
52 c-65 65 -87 64 -177 -1 -35 -26 -67 -47 -71 -47 -12 0 -83 85 -104 125
l-20 36 25 19 c14 11 28 20 31 20 4 0 21 -22 38 -49 57 -88 76 -95 134 -48
l29 23 -43 62 c-43 63 -53 70 -64 52 -3 -5 -11 -10 -17 -10 -7 0 -6 5 2 14 9
12 6 31 -17 93 -26 73 -28 88 -28 233 0 136 3 163 23 220 52 146 157 276 302
376 62 42 211 114 238 114 9 0 12 -24 12 -85z m1677 -157 c-3 -7 -5 -2 -5 12
0 14 2 19 5 13 2 -7 2 -19 0 -25z m-1945 -53 c-5 -52 -22 -61 -22 -12 0 25 14
57 25 57 0 0 -1 -20 -3 -45z m1955 3 c-3 -7 -5 -2 -5 12 0 14 2 19 5 13 2 -7
2 -19 0 -25z m267 -116 c3 -20 6 -63 6 -95 0 -55 -1 -57 -20 -47 -18 9 -20 21
-20 100 0 72 3 88 14 84 7 -3 16 -22 20 -42z m-1338 -293 c19 -22 19 -22 -3
-8 -13 8 -23 17 -23 21 0 12 6 9 26 -13z m133 -156 c11 -23 21 -48 21 -55 0
-7 -11 10 -24 37 -13 28 -42 71 -65 97 -55 61 -53 70 3 10 24 -26 53 -66 65
-89z m1271 -339 c22 -9 40 -22 40 -29 0 -32 -77 -230 -127 -327 -49 -94 -64
-114 -129 -170 -41 -34 -95 -87 -121 -116 -51 -60 -55 -59 -73 20 -12 47 -11
48 38 130 28 46 65 113 83 150 18 37 37 64 41 62 24 -15 84 92 124 220 24 77
50 89 124 60z m-2202 -163 c42 -21 102 -46 132 -56 96 -31 95 -47 -1 -19 -117
34 -290 144 -334 210 -28 44 -15 36 55 -30 45 -42 99 -80 148 -105z m2022 14
c-17 -46 -51 -107 -57 -102 -7 7 48 127 58 127 5 0 4 -11 -1 -25z m-1973 9
c-3 -3 -12 -4 -19 -1 -8 3 -5 6 6 6 11 1 17 -2 13 -5z m133 -15 c0 -7 -16 -8
-47 -3 -65 9 -67 14 -5 14 30 0 52 -4 52 -11z"/>
<path d="M2475 2910 c-8 -184 4 -660 16 -660 5 0 9 185 9 410 0 227 -4 410 -9
410 -5 0 -12 -72 -16 -160z"/>
<path d="M2600 2911 l0 -141 88 0 c63 0 98 6 128 19 88 40 98 158 20 231 -25
23 -37 25 -132 28 l-104 4 0 -141z m225 -71 c-10 -11 -22 -20 -28 -20 -5 0 1
9 14 20 31 25 37 25 14 0z m-82 -27 c-24 -2 -62 -2 -85 0 -24 2 -5 4 42 4 47
0 66 -2 43 -4z"/>
<path d="M1947 2644 c-13 -4 -16 -12 -11 -32 32 -149 82 -247 177 -348 38 -41
73 -74 77 -74 5 0 10 26 12 58 3 57 3 57 36 60 l33 3 -25 43 c-33 57 -76 186
-76 229 0 34 -2 36 -50 46 -65 14 -150 21 -173 15z"/>
<path d="M2602 2409 l3 -154 99 -3 c121 -3 185 14 220 61 36 48 42 96 17 151
-29 66 -73 84 -225 92 l-117 7 3 -154z m270 -79 c-35 -29 -87 -40 -177 -38
l-80 1 101 7 c77 5 108 11 135 27 43 27 51 28 21 3z"/>
<path d="M2600 2019 c0 -88 1 -90 23 -87 21 3 22 8 25 91 l3 87 -26 0 c-25 0
-25 0 -25 -91z"/>
<path d="M1802 4298 c-25 -25 0 -64 32 -52 21 8 21 50 0 58 -20 8 -18 8 -32
-6z"/>
<path d="M3296 4284 c-16 -15 -16 -18 -2 -33 15 -14 18 -14 33 2 16 15 16 18
2 33 -15 14 -18 14 -33 -2z"/>
<path d="M3383 4244 c-8 -21 13 -42 28 -27 13 13 5 43 -11 43 -6 0 -13 -7 -17
-16z"/>
<path d="M3891 4236 c-8 -9 -8 -22 -2 -38 13 -35 106 -115 141 -123 22 -5 50
-31 102 -93 194 -236 348 -536 403 -787 10 -44 28 -98 40 -120 13 -22 26 -64
30 -92 4 -29 11 -55 16 -59 23 -14 0 175 -41 331 -61 232 -171 454 -329 665
-68 91 -169 200 -185 200 -6 0 -41 29 -76 65 -67 68 -80 74 -99 51z"/>
<path d="M2470 4210 c-25 -4 14 -5 85 -2 72 3 132 6 134 8 7 7 -172 1 -219 -6z"/>
<path d="M2388 4193 c6 -2 18 -2 25 0 6 3 1 5 -13 5 -14 0 -19 -2 -12 -5z"/>
<path d="M3642 4038 c2 -15 11 -24 26 -26 20 -3 23 0 20 20 -2 15 -11 24 -26
26 -20 3 -23 0 -20 -20z"/>
<path d="M1135 3828 c-166 -179 -299 -437 -365 -710 -38 -154 -38 -172 -1
-198 26 -20 27 -25 20 -63 -14 -74 -11 -112 13 -133 l21 -19 -17 27 c-15 23
-16 34 -6 88 6 34 13 67 16 75 3 7 -8 21 -26 32 -30 17 -31 20 -24 68 12 92
61 269 101 367 72 175 177 342 309 496 59 68 32 48 -41 -30z"/>
<path d="M1725 3828 c-54 -38 -215 -201 -270 -273 -52 -69 -122 -185 -111
-185 3 0 35 46 72 103 49 75 104 139 205 240 76 75 137 137 136 137 -1 0 -15
-10 -32 -22z"/>
<path d="M1096 3597 c-75 -98 -207 -368 -206 -419 1 -7 16 25 34 72 42 110
102 228 159 313 48 71 55 89 13 34z"/>
<path d="M4316 3504 c-32 -32 -7 -78 39 -72 36 4 46 39 19 69 -21 23 -37 24
-58 3z"/>
<path d="M1256 3309 c-10 -16 -15 -37 -12 -45 3 -9 -9 -61 -28 -117 -53 -155
-67 -236 -73 -414 -6 -172 4 -275 38 -401 23 -88 24 -100 2 -124 -16 -18 -14
-24 36 -126 63 -128 141 -247 211 -322 51 -54 41 -39 -46 72 -71 91 -174 275
-174 312 0 11 39 41 44 34 1 -2 12 -27 24 -57 31 -77 121 -207 201 -293 78
-82 110 -88 36 -6 -117 129 -259 384 -295 529 -71 287 -48 596 66 882 19 48
32 92 29 97 -12 20 -41 9 -59 -21z"/>
<path d="M1128 3202 c-80 -215 -107 -391 -89 -574 6 -61 13 -113 16 -116 12
-12 13 8 3 83 -13 102 -3 276 21 385 16 69 61 210 96 303 4 9 3 17 -2 17 -5 0
-25 -44 -45 -98z"/>
<path d="M3454 3178 c-36 -39 -36 -46 -5 -127 16 -43 38 -119 47 -169 l17 -92
33 0 c33 0 34 1 34 43 0 77 -50 260 -92 341 l-14 27 -20 -23z"/>
<path d="M414 3026 c-9 -24 4 -48 23 -44 12 2 18 12 18 28 0 29 -32 41 -41 16z"/>
<path d="M496 2893 c-26 -141 -37 -290 -29 -393 8 -92 8 -88 14 100 4 109 14
234 23 284 9 49 15 91 12 93 -2 2 -11 -36 -20 -84z"/>
<path d="M4247 2793 c-14 -14 -6 -42 14 -48 26 -8 54 16 46 39 -6 16 -48 22
-60 9z"/>
<path d="M4597 2683 c-14 -13 -7 -33 11 -33 24 0 32 8 25 26 -5 15 -25 19 -36
7z"/>
<path d="M3503 2603 c-12 -83 -9 -93 33 -93 27 0 34 17 41 103 l6 67 -35 0
-34 0 -11 -77z"/>
<path d="M3592 2598 c-7 -45 -10 -83 -7 -86 2 -2 24 -7 49 -9 42 -5 46 -3 55
21 6 14 13 55 17 91 l7 65 -55 0 -55 0 -11 -82z"/>
<path d="M732 2638 c-16 -16 -16 -90 0 -106 15 -15 53 -16 79 -2 14 8 19 21
19 55 0 34 -5 47 -19 55 -26 14 -64 13 -79 -2z"/>
<path d="M4598 2539 c-28 -16 -23 -49 7 -49 30 0 44 26 24 45 -10 10 -19 11
-31 4z"/>
<path d="M4582 2336 c-7 -37 -11 -70 -8 -73 6 -7 28 104 24 125 -2 9 -9 -14
-16 -52z"/>
<path d="M481 2204 c0 -11 3 -14 6 -6 3 7 2 16 -1 19 -3 4 -6 -2 -5 -13z"/>
<path d="M491 2165 c-1 -43 84 -343 94 -333 2 2 -5 33 -16 68 -12 36 -34 115
-49 175 -16 61 -29 101 -29 90z"/>
<path d="M3225 2083 c-75 -67 -162 -127 -237 -164 -60 -29 -68 -37 -68 -61 0
-40 20 -36 120 20 83 46 260 202 260 228 0 27 -28 18 -75 -23z"/>
<path d="M2056 1995 c-10 -8 -16 -20 -13 -28 6 -15 118 -92 184 -126 l42 -21
16 29 15 29 -68 37 c-37 21 -83 50 -103 66 -42 33 -47 34 -73 14z"/>
<path d="M3772 1882 c-132 -168 -341 -346 -523 -446 -36 -20 -113 -54 -170
-76 -110 -42 -121 -54 -17 -19 154 52 376 189 522 320 71 65 167 172 224 253
51 71 32 54 -36 -32z"/>
<path d="M3857 1043 c-12 -11 -7 -33 8 -39 20 -8 45 13 38 32 -5 14 -34 19
-46 7z"/>
<path d="M3790 1015 c0 -8 5 -15 10 -15 6 0 10 7 10 15 0 8 -4 15 -10 15 -5 0
-10 -7 -10 -15z"/>
<path d="M1892 946 c69 -41 301 -102 458 -121 96 -11 48 4 -79 26 -68 11 -180
39 -248 60 -167 54 -162 52 -131 35z"/>
<path d="M1374 879 c-8 -14 21 -43 35 -35 6 4 11 16 11 27 0 21 -34 27 -46 8z"/>
<path d="M2931 850 c-73 -16 -136 -32 -140 -35 -3 -4 12 -4 34 0 71 12 258 55
263 60 9 8 -18 4 -157 -25z"/>
<path d="M1632 758 c-8 -8 -9 -15 -1 -25 15 -17 25 -17 32 1 8 21 -16 39 -31
24z"/>
<path d="M3402 729 c2 -6 8 -10 13 -10 5 0 11 4 13 10 2 6 -4 11 -13 11 -9 0
-15 -5 -13 -11z"/>
<path d="M3246 656 c3 -9 11 -16 16 -16 13 0 5 23 -10 28 -7 2 -10 -2 -6 -12z"/>
<path d="M3055 633 c-30 -7 -41 -21 -28 -34 18 -18 63 -2 63 21 0 21 -1 21
-35 13z"/>
<path d="M2960 574 c0 -8 5 -12 10 -9 6 4 8 11 5 16 -9 14 -15 11 -15 -7z"/>
</g>
</svg>